<?xml version="1.0" encoding="utf-8"?><svg fill="#199cb6" version="1.1" xmlns="http://www.w3.org/2000/svg" xmlns:xlink="http://www.w3.org/1999/xlink" x="0px" y="0px" viewBox="0 0 24 24" xml:space="preserve" width="24" height="24"><g><path d="M21.7,0H5.3C4,0,3,1,3,2.3v1.5H2.3C1,3.8,0,4.8,0,6v15c0,1.7,1.3,3,3,3h18c1.7,0,3-1.3,3-3V2.3	C24,1,23,0,21.7,0z M22.5,21c0,0.8-0.7,1.5-1.5,1.5H3c-0.8,0-1.5-0.7-1.5-1.5V6c0-0.4,0.3-0.7,0.7-0.7H3v15C3,20.7,3.3,21,3.8,21 s0.7-0.3,0.7-0.7v-18c0-0.4,0.3-0.7,0.7-0.7h16.5c0.4,0,0.7,0.3,0.7,0.7V21z"/><path  d="M14.6,9.8h6c0.2,0,0.4-0.2,0.4-0.4C21,9.2,20.8,9,20.6,9h-6c-0.2,0-0.4,0.2-0.4,0.4	C14.2,9.6,14.4,9.8,14.6,9.8z"/><path d="M14.6,7.5h6c0.2,0,0.4-0.2,0.4-0.4s-0.2-0.4-0.4-0.4h-6c-0.2,0-0.4,0.2-0.4,0.4S14.4,7.5,14.6,7.5z"/><path d="M14.6,5.3h6c0.2,0,0.4-0.2,0.4-0.4s-0.2-0.4-0.4-0.4h-6c-0.2,0-0.4,0.2-0.4,0.4S14.4,5.3,14.6,5.3z"/><path  d="M12.4,20.3h-6c-0.2,0-0.4,0.2-0.4,0.4C6,20.8,6.2,21,6.4,21h6c0.2,0,0.4-0.2,0.4-0.4			C12.7,20.4,12.6,20.3,12.4,20.3z"/><path  d="M12.4,18h-6C6.2,18,6,18.2,6,18.4c0,0.2,0.2,0.4,0.4,0.4h6c0.2,0,0.4-0.2,0.4-0.4C12.7,18.2,12.6,18,12.4,18z"/><path d="M12.4,15.8h-6c-0.2,0-0.4,0.2-0.4,0.4c0,0.2,0.2,0.4,0.4,0.4h6c0.2,0,0.4-0.2,0.4-0.4 C12.7,15.9,12.6,15.8,12.4,15.8z"/><path d="M20.6,20.3h-6c-0.2,0-0.4,0.2-0.4,0.4c0,0.2,0.2,0.4,0.4,0.4h6c0.2,0,0.4-0.2,0.4-0.4 C21,20.4,20.8,20.3,20.6,20.3z"/><path d="M20.6,18h-6c-0.2,0-0.4,0.2-0.4,0.4c0,0.2,0.2,0.4,0.4,0.4h6c0.2,0,0.4-0.2,0.4-0.4C21,18.2,20.8,18,20.6,18z"/><path d="M20.6,15.8h-6c-0.2,0-0.4,0.2-0.4,0.4c0,0.2,0.2,0.4,0.4,0.4h6c0.2,0,0.4-0.2,0.4-0.4 C21,15.9,20.8,15.8,20.6,15.8z"/><path d="M20.6,11.3H6.4c-0.2,0-0.4,0.2-0.4,0.4C6,11.8,6.2,12,6.4,12h14.2c0.2,0,0.4-0.2,0.4-0.4 C21,11.4,20.8,11.3,20.6,11.3z"/><path d="M20.6,13.5H6.4c-0.2,0-0.4,0.2-0.4,0.4c0,0.2,0.2,0.4,0.4,0.4h14.2c0.2,0,0.4-0.2,0.4-0.4 C21,13.7,20.8,13.5,20.6,13.5z"/><path d="M6.8,9.8H12c0.4,0,0.7-0.3,0.7-0.7V3.8C12.7,3.3,12.4,3,12,3H6.8C6.3,3,6,3.3,6,3.8V9C6,9.4,6.3,9.8,6.8,9.8z M7.5,4.5h3.7v3.7H7.5V4.5z"/></g></svg>
